<?xml version="1.0" standalone="no"?>
<!DOCTYPE svg PUBLIC "-//W3C//DTD SVG 20010904//EN"
 "http://www.w3.org/TR/2001/REC-SVG-20010904/DTD/svg10.dtd">
<svg version="1.0" xmlns="http://www.w3.org/2000/svg"
 width="500.000000pt" height="500.000000pt" viewBox="0 0 500.000000 500.000000"
 preserveAspectRatio="xMidYMid meet">
<metadata>
Created by potrace 1.14, written by Peter Selinger 2001-2017
</metadata>
<g transform="translate(0.000000,500.000000) scale(0.100000,-0.100000)"
fill="#000000" stroke="none">
<path d="M3185 4830 c-87 -23 -151 -48 -257 -101 -111 -56 -176 -101 -310
-216 -165 -140 -248 -223 -466 -468 -334 -375 -437 -464 -732 -637 -198 -116
-345 -236 -468 -383 -171 -203 -284 -422 -354 -684 -31 -113 -31 -123 -36
-376 -3 -236 -2 -270 18 -364 74 -364 272 -707 542 -941 182 -157 560 -382
738 -439 192 -61 523 -78 825 -42 99 12 221 26 270 32 195 22 320 57 460 127
244 121 511 387 632 627 99 196 135 355 173 767 25 276 47 420 121 796 89 454
99 531 99 781 0 196 -3 234 -35 440 -20 124 -47 276 -61 336 -50 216 -158 394
-317 523 -158 129 -257 183 -415 222 -106 27 -326 27 -427 0z m320 -415 c80
-21 168 -70 233 -129 63 -58 91 -99 121 -180 45 -122 22 -325 -73 -631 -87
-282 -133 -494 -217 -1020 -106 -665 -191 -954 -347 -1190 -59 -88 -233 -269
-326 -339 -81 -60 -222 -145 -281 -168 -150 -59 -424 -76 -610 -38 -154 32
-282 83 -452 182 -166 96 -276 203 -395 388 -90 138 -124 222 -174 425 -75
311 23 675 274 1011 81 108 222 241 371 350 185 135 481 362 525 403 44 41
261 272 481 510 169 183 264 263 394 332 77 40 198 87 266 102 46 10 155 6
210 -8z"/>
<path d="M2052 2630 c-250 -66 -433 -244 -513 -500 -31 -97 -34 -280 -6 -380
57 -208 191 -372 382 -466 206 -101 419 -99 635 7 67 34 101 59 170 128 95 96
140 165 176 273 54 159 54 323 0 478 -64 186 -219 350 -403 428 -129 55 -305
67 -441 32z"/>
</g>
</svg>
